<?xml version="1.0" encoding="UTF-8"?>
<svg version="1.1" xmlns="http://www.w3.org/2000/svg" width="512" height="512">
<path d="M0 0 C1.84706543 0.00845947 1.84706543 0.00845947 3.73144531 0.01708984 C33.58310804 0.41432541 59.08869242 12.78258765 80.5 33.125 C95.42874652 48.66558039 108.6808448 71.32241283 109.25 93.3125 C110.27996094 93.27769531 111.30992187 93.24289063 112.37109375 93.20703125 C140.68965483 92.5421344 165.65966443 101.74864229 186.25 121.3125 C205.75958608 140.37931534 215.69520756 165.98789247 216.5625 193.0625 C215.96258045 220.92126412 205.52061872 244.9594363 186.125 264.6875 C185.63418945 265.18789795 185.14337891 265.6882959 184.63769531 266.20385742 C182.1751743 268.64369949 179.86726325 270.54624599 176.8984375 272.359375 C174.06430865 274.00558342 174.06430865 274.00558342 173.734375 276.5546875 C173.82203125 277.42351562 173.9096875 278.29234375 174 279.1875 C175.54731182 311.76039751 164.79133236 343.79994938 143.25 368.3125 C142.56421875 369.14265625 141.8784375 369.9728125 141.171875 370.828125 C120.81220662 394.80728998 89.74485581 408.65536016 58.875 411.9375 C26.41024344 414.45947968 -8.02187068 405.76245761 -33.26171875 384.48828125 C-34.08285156 383.77027344 -34.90398437 383.05226563 -35.75 382.3125 C-36.70519531 381.50167969 -37.66039062 380.69085938 -38.64453125 379.85546875 C-50.59934724 369.49488557 -59.4940846 357.31290064 -66.75 343.3125 C-67.56597656 341.74242187 -67.56597656 341.74242187 -68.3984375 340.140625 C-75.58753139 325.47049432 -79.75 309.63078268 -79.75 293.3125 C-102.19 293.3125 -124.63 293.3125 -147.75 293.3125 C-147.75 311.4625 -147.75 329.6125 -147.75 348.3125 C-142.46613281 348.25449219 -137.18226563 348.19648438 -131.73828125 348.13671875 C-128.38864113 348.11116761 -125.03912135 348.087098 -121.68945312 348.06835938 C-116.37385064 348.03848198 -111.05867923 348.00315726 -105.7434082 347.93530273 C-101.45750904 347.88093221 -97.17207217 347.85106898 -92.88585472 347.83811378 C-91.25154531 347.82888285 -89.6172609 347.81085645 -87.98314857 347.78384972 C-85.69174377 347.74748985 -83.40224308 347.74255717 -81.1105957 347.74487305 C-79.80709671 347.73376999 -78.50359772 347.72266693 -77.16059875 347.71122742 C-72.8177607 348.47684942 -71.35788442 349.80346743 -68.75 353.3125 C-68.14872742 355.84992981 -68.14872742 355.84992981 -68.18237305 358.56176758 C-68.1827507 359.58244827 -68.18312836 360.60312897 -68.18351746 361.65473938 C-68.2222271 363.28937386 -68.2222271 363.28937386 -68.26171875 364.95703125 C-68.27233086 366.64441658 -68.27233086 366.64441658 -68.28315735 368.3658905 C-68.31110856 371.95294149 -68.37385283 375.53842212 -68.4375 379.125 C-68.46258173 381.55922222 -68.48539511 383.99346895 -68.50585938 386.42773438 C-68.56093774 392.3898572 -68.64457295 398.3510664 -68.75 404.3125 C-67.82058594 404.60898437 -66.89117187 404.90546875 -65.93359375 405.2109375 C-58.42997815 407.80728057 -52.57167652 413.32582804 -48.67578125 420.2109375 C-44.98841346 428.44905676 -44.92732053 436.25429125 -47.71875 444.7578125 C-51.44215631 453.98170541 -57.25867264 459.14307674 -66.078125 463.44921875 C-74.10143761 466.04154636 -84.06537984 465.17680438 -91.609375 461.5546875 C-99.61852831 456.90704014 -103.4735633 450.99835569 -106.75 442.3125 C-108.79953726 434.13846318 -107.84729554 425.55710317 -103.6875 418.1875 C-98.61378041 410.82387157 -93.34922109 406.76942031 -84.75 404.3125 C-84.75 391.1125 -84.75 377.9125 -84.75 364.3125 C-105.54 364.3125 -126.33 364.3125 -147.75 364.3125 C-147.75 370.2525 -147.75 376.1925 -147.75 382.3125 C-152.75 387.3125 -152.75 387.3125 -155.28742981 387.91377258 C-156.18233627 387.90266953 -157.07724274 387.89156647 -157.99926758 387.88012695 C-159.01994827 387.8797493 -160.04062897 387.87937164 -161.09223938 387.87898254 C-162.1819957 387.85317612 -163.27175201 387.82736969 -164.39453125 387.80078125 C-165.5194548 387.79370651 -166.64437836 387.78663177 -167.8033905 387.77934265 C-171.39044149 387.75139144 -174.97592212 387.68864717 -178.5625 387.625 C-180.99672222 387.59991827 -183.43096895 387.57710489 -185.86523438 387.55664062 C-191.8273572 387.50156226 -197.7885664 387.41792705 -203.75 387.3125 C-204.04648438 388.24191406 -204.34296875 389.17132813 -204.6484375 390.12890625 C-207.29534376 397.77865306 -212.75541519 403.18123712 -219.51953125 407.421875 C-226.6385553 410.70996454 -235.96211983 410.48163353 -243.4375 408.65625 C-251.20649885 405.52706991 -257.71244165 399.61116317 -261.75 392.3125 C-264.90773066 384.22367544 -265.13581178 375.06691705 -262.125 366.875 C-257.63926417 357.34085764 -250.96987343 352.64495254 -241.25 349 C-232.5285957 347.28686701 -224.41213825 348.17468981 -216.55078125 352.53125 C-209.72662748 357.21066973 -205.37131166 363.2059417 -203.75 371.3125 C-190.55 371.3125 -177.35 371.3125 -163.75 371.3125 C-163.75 345.5725 -163.75 319.8325 -163.75 293.3125 C-174.31 293.3125 -184.87 293.3125 -195.75 293.3125 C-213.34668815 291.34444935 -227.31599118 285.83311926 -240.75 274.3125 C-241.83861328 273.39210938 -241.83861328 273.39210938 -242.94921875 272.453125 C-257.78255076 258.81461934 -264.15922521 239.87399094 -266.03515625 220.34375 C-266.71388293 200.74920582 -259.11378378 181.79103556 -246.4375 167.125 C-234.11302918 154.01209501 -220.05340666 147.21424856 -202.75 143.3125 C-202.71132812 141.73275391 -202.71132812 141.73275391 -202.671875 140.12109375 C-201.94144188 119.13217153 -195.8486256 100.56276173 -180.75 85.3125 C-164.58201732 70.96089263 -145.37530762 64.39013422 -123.86474609 65.16308594 C-116.59953703 65.67639787 -109.43933005 67.4580549 -102.75 70.3125 C-102.6675 69.65507813 -102.585 68.99765625 -102.5 68.3203125 C-99.63449495 56.82844329 -91.67267922 45.81882486 -83.75 37.3125 C-83.04665527 36.5397876 -83.04665527 36.5397876 -82.32910156 35.75146484 C-60.92139606 12.39697447 -31.66929788 -0.15238183 0 0 Z M-63.75 41.3125 C-65.02423828 42.44945312 -65.02423828 42.44945312 -66.32421875 43.609375 C-78.86626016 55.36393754 -86.02476312 70.53334709 -91.890625 86.484375 C-92.75 88.3125 -92.75 88.3125 -94.75 89.3125 C-101.26444432 90.02316665 -105.13862905 88.38755357 -110.96484375 85.55859375 C-122.78732044 80.26915467 -136.71483754 81.3055324 -148.75 85.3125 C-164.23303892 91.95580391 -175.8568515 103.08110557 -182.70703125 118.44140625 C-185.79303721 126.9365912 -186.15561867 134.81786527 -186.375 143.8125 C-186.41367188 145.111875 -186.45234375 146.41125 -186.4921875 147.75 C-186.58593347 150.93736286 -186.67164349 154.1247279 -186.75 157.3125 C-187.89855469 157.47105469 -189.04710937 157.62960938 -190.23046875 157.79296875 C-203.68589343 159.76542325 -215.81481858 162.79839196 -226.75 171.3125 C-227.89082031 172.19035156 -227.89082031 172.19035156 -229.0546875 173.0859375 C-240.74508898 182.72953468 -247.67533514 197.02048567 -249.53125 211.95703125 C-250.66187733 229.30004695 -245.40953702 244.95405073 -234 258.0625 C-222.57128093 270.01922249 -208.46146361 276.44086454 -191.91204262 277.49290848 C-188.92102993 277.5559675 -185.93618124 277.56031882 -182.94458008 277.53955078 C-181.82131317 277.53984283 -180.69804626 277.54013489 -179.54074097 277.54043579 C-175.86692289 277.53905419 -172.19331343 277.52354838 -168.51953125 277.5078125 C-165.95692557 277.50407821 -163.39431844 277.5012332 -160.83171082 277.49923706 C-154.80069683 277.49240849 -148.76977094 277.47668232 -142.73879212 277.45653808 C-135.86564315 277.4340854 -128.99249043 277.42316223 -122.11931384 277.41314721 C-107.99616867 277.39231297 -93.87308839 277.3571959 -79.75 277.3125 C-79.67024933 276.75148087 -79.59049866 276.19046173 -79.5083313 275.61244202 C-79.13767337 273.02351101 -78.76028069 270.43560273 -78.3828125 267.84765625 C-78.25753174 266.96549438 -78.13225098 266.08333252 -78.00317383 265.17443848 C-73.29586481 233.13079732 -55.55329086 203.63107777 -29.76171875 184.04296875 C-1.31156818 163.65195729 32.03703783 155.12155979 66.953125 160.0078125 C100.57938194 165.71547316 129.92370963 184.12778854 149.78515625 211.81640625 C159.48840887 225.67192695 165.2232018 240.23779367 170.25 256.3125 C174.91076096 253.49690834 178.27955187 250.38474352 181.625 246.0625 C182.33281616 245.15201904 182.33281616 245.15201904 183.05493164 244.22314453 C196.8214268 225.89735782 203.4476524 203.39211856 200.8203125 180.58203125 C196.98840889 158.13464526 184.36932742 138.00199144 165.890625 124.703125 C148.905897 113.16245911 131.31769067 109.65616683 111.07055664 110.37109375 C110.0005542 110.40203125 108.93055176 110.43296875 107.828125 110.46484375 C106.39581543 110.5265979 106.39581543 110.5265979 104.93457031 110.58959961 C101.62256293 110.24773635 99.85392614 109.37459678 97.25 107.3125 C96.41040039 105.2980957 96.41040039 105.2980957 96.09765625 102.98828125 C95.96464111 102.13250488 95.83162598 101.27672852 95.69458008 100.39501953 C95.50545044 99.02385986 95.50545044 99.02385986 95.3125 97.625 C91.62627282 75.40888171 82.23994887 58.10422636 66.25 42.3125 C65.21746094 41.28189453 65.21746094 41.28189453 64.1640625 40.23046875 C48.95005822 26.01147319 26.11996445 16.85659591 5.25 16.3125 C4.56808594 16.27382813 3.88617188 16.23515625 3.18359375 16.1953125 C-21.32009091 15.38303566 -45.8563219 24.74323587 -63.75 41.3125 Z M-37.3125 212 C-58.99268858 236.77735838 -65.02651478 266.14530579 -63.75 298.3125 C-61.61876278 327.09259316 -44.79410408 352.58774034 -23.75 371.3125 C-5.61698822 386.35503513 17.88427451 394.79336614 41.25 396.3125 C42.40628906 396.39371094 42.40628906 396.39371094 43.5859375 396.4765625 C68.78894481 397.3511148 94.43937517 388.81646725 114.25 373.3125 C115.22582031 372.56226563 116.20164062 371.81203125 117.20703125 371.0390625 C124.21728025 365.44849915 129.89216243 359.48743365 135.25 352.3125 C135.85328125 351.53519531 136.4565625 350.75789062 137.078125 349.95703125 C151.0284303 331.19952615 157.67145629 308.77334841 157.5625 285.5625 C157.55758545 284.3247583 157.5526709 283.0870166 157.54760742 281.81176758 C157.43379197 272.93241122 156.76701801 264.86833138 154.25 256.3125 C153.9096875 255.09175781 153.569375 253.87101562 153.21875 252.61328125 C144.56877891 224.17942357 124.21202541 200.40308989 98.17333984 186.30126953 C51.45147853 162.2820339 -1.99544525 174.60187096 -37.3125 212 Z M-243.5625 371.0625 C-246.06194649 374.77596335 -246.75 376.84937763 -246.75 381.3125 C-245.02590063 387.19472138 -242.55477921 389.83670227 -237.75 393.3125 C-234.53124833 394.92187584 -231.2407823 394.7748984 -227.75 394.3125 C-222.95321055 391.91410527 -220.11316288 389.12971665 -217.75 384.3125 C-216.91071226 379.54226255 -217.26144572 376.25471183 -219.5 371.9375 C-223.55363657 367.20825733 -226.30052566 365.73217261 -232.5078125 365.25390625 C-237.47245649 365.38364433 -240.13250823 367.70873027 -243.5625 371.0625 Z M-87.5625 425 C-90.13685095 428.89830287 -91.18629502 431.6528692 -90.75 436.3125 C-89.43972833 440.76095318 -87.44948407 443.66181715 -84.0625 446.8125 C-79.77649815 448.75333103 -76.37864111 449.12687492 -71.75 448.3125 C-66.93293927 445.9494136 -64.1130864 443.12956073 -61.75 438.3125 C-60.93562508 433.68385889 -61.30916897 430.28600185 -63.25 426 C-66.95499472 422.01713068 -70.9923307 419.77211155 -76.375 418.875 C-81.11490681 419.74814073 -84.09859546 421.69004678 -87.5625 425 Z " fill="#000000" transform="translate(280.75,23.6875)"/>
<path d="M0 0 C9.61395926 7.42994179 14.54957574 18.96374505 16.12890625 30.73046875 C16.19546937 33.36636833 16.22458036 35.97195471 16.19140625 38.60546875 C16.18689453 39.29382813 16.18238281 39.9821875 16.17773438 40.69140625 C16.16606961 42.3711321 16.14813896 44.0508125 16.12890625 45.73046875 C16.69738281 45.6840625 17.26585937 45.63765625 17.8515625 45.58984375 C23.67351611 45.31769901 27.60713029 45.94288102 32.12890625 49.73046875 C35.96634939 55.19835503 36.71197609 59.17747449 36.64648438 65.76757812 C36.65349365 66.64493118 36.66050293 67.52228424 36.66772461 68.42622375 C36.68524437 71.30921639 36.67370331 74.19121716 36.66015625 77.07421875 C36.66285289 79.08768908 36.66673675 81.10115814 36.67175293 83.11462402 C36.67763983 87.32768188 36.66911097 91.54039974 36.65039062 95.75341797 C36.62760172 101.14370539 36.64072912 106.53319607 36.66468048 111.92345428 C36.67916023 116.07914187 36.67452245 120.23464172 36.66416931 124.39033508 C36.66150805 126.37738643 36.66475058 128.36445502 36.67408752 130.35148621 C36.68428894 133.13256744 36.66870201 135.91237275 36.64648438 138.69335938 C36.6545813 139.50811234 36.66267822 140.3228653 36.67102051 141.16230774 C36.58772324 146.81324669 35.5660237 150.1786388 32.12890625 154.73046875 C26.46553692 159.13382166 21.63637759 159.30693165 14.62304688 159.24804688 C13.58963669 159.25505615 12.5562265 159.26206543 11.49150085 159.26928711 C8.08910942 159.28683473 4.68755556 159.27525522 1.28515625 159.26171875 C-1.08703775 159.26441458 -3.45923067 159.26829775 -5.8314209 159.27331543 C-10.79771468 159.27920613 -15.76372025 159.27066094 -20.72998047 159.25195312 C-27.0887725 159.22916431 -33.44688916 159.24228962 -39.80565643 159.26624298 C-44.70250517 159.28071225 -49.59919437 159.27608968 -54.49604797 159.26573181 C-56.84035828 159.26306767 -59.18468317 159.26632323 -61.52897644 159.27565002 C-64.80811816 159.28583374 -68.08617336 159.27028765 -71.36523438 159.24804688 C-72.81178154 159.26019226 -72.81178154 159.26019226 -74.28755188 159.27258301 C-80.32727104 159.19687486 -84.08601471 158.54761775 -88.87109375 154.73046875 C-92.84606548 149.43244525 -93.45712552 144.13567523 -93.40454102 137.6875 C-93.41746437 136.38829117 -93.41746437 136.38829117 -93.4306488 135.06283569 C-93.45320333 132.22256909 -93.44658996 129.38329752 -93.4375 126.54296875 C-93.44273987 124.55574249 -93.44901768 122.56851872 -93.45628357 120.58129883 C-93.46666809 116.42549905 -93.46215371 112.27004211 -93.44750977 108.11425781 C-93.43031613 102.80132172 -93.4538349 97.48946656 -93.48899937 92.176651 C-93.51100804 88.07581482 -93.50952361 83.97523597 -93.50123405 79.87435913 C-93.50041661 77.91603407 -93.50724025 75.95768973 -93.52200508 73.99942017 C-93.53951748 71.25675862 -93.52485417 68.51602324 -93.50219727 65.7734375 C-93.51388947 64.9732016 -93.52558167 64.1729657 -93.53762817 63.34848022 C-93.43838113 57.41348358 -91.6499504 53.319391 -87.87109375 48.73046875 C-83.07008286 45.23882447 -78.57282736 45.38836473 -72.87109375 45.73046875 C-72.92330078 44.45816406 -72.92330078 44.45816406 -72.9765625 43.16015625 C-73.27906298 30.05180202 -71.7281076 18.58158762 -63.87109375 7.73046875 C-63.10796875 6.65796875 -62.34484375 5.58546875 -61.55859375 4.48046875 C-44.41606361 -13.06072488 -19.59792006 -13.29712739 0 0 Z M-50.1796875 16.515625 C-57.15434314 25.6487191 -56.87109375 34.40079675 -56.87109375 45.73046875 C-38.06109375 45.73046875 -19.25109375 45.73046875 0.12890625 45.73046875 C0.12890625 32.9568161 0.11409985 24.71319462 -8.12109375 15.10546875 C-15.38513277 8.83198051 -21.33215176 6.32036108 -30.9296875 6.4609375 C-38.93246147 7.19425942 -44.78830601 10.66679295 -50.1796875 16.515625 Z M-76.87109375 61.73046875 C-76.87109375 88.46046875 -76.87109375 115.19046875 -76.87109375 142.73046875 C-44.86109375 142.73046875 -12.85109375 142.73046875 20.12890625 142.73046875 C20.12890625 116.00046875 20.12890625 89.27046875 20.12890625 61.73046875 C-11.88109375 61.73046875 -43.89109375 61.73046875 -76.87109375 61.73046875 Z " fill="#000000" transform="translate(355.87109375,227.26953125)"/>
<path d="M0 0 C5.18753316 3.89299505 8.90634341 9.22664829 10.16015625 15.62109375 C10.89969461 23.01647733 10.40196843 29.35263798 6.16015625 35.62109375 C2.64948411 39.44830191 -0.60412587 42.68614413 -5.83984375 43.62109375 C-5.81664062 44.21277344 -5.7934375 44.80445313 -5.76953125 45.4140625 C-5.58036733 53.69673996 -5.58036733 53.69673996 -7.83984375 57.62109375 C-11.54997774 60.09451641 -13.45044637 60.00612861 -17.83984375 59.62109375 C-20.046875 58.51953125 -20.046875 58.51953125 -21.83984375 56.62109375 C-22.23046875 53.484375 -22.23046875 53.484375 -22.08984375 49.93359375 C-22.05375 48.75410156 -22.01765625 47.57460938 -21.98046875 46.359375 C-21.91085937 45.00392578 -21.91085937 45.00392578 -21.83984375 43.62109375 C-22.58105469 43.51796875 -23.32226562 43.41484375 -24.0859375 43.30859375 C-29.40207166 41.98144536 -33.22805801 38.00958961 -36.2421875 33.54296875 C-39.78201537 26.53889653 -40.12360988 18.82817213 -37.71484375 11.37109375 C-34.75303445 4.67959866 -30.32840356 -0.05421137 -23.45703125 -2.71484375 C-15.21914518 -4.80505365 -7.40206407 -4.24866442 0 0 Z M-20.83984375 13.62109375 C-22.88935339 16.25617757 -22.83781605 17.73464495 -22.77734375 21.12109375 C-22.08946694 24.6891896 -22.08946694 24.6891896 -19.71484375 27.12109375 C-15.8683608 29.12795442 -13.95437834 28.89285899 -9.83984375 27.62109375 C-7.18099774 25.63089258 -7.18099774 25.63089258 -5.83984375 22.62109375 C-5.89968189 19.15048146 -6.16817032 16.74054947 -7.96484375 13.74609375 C-12.06566598 11.28560041 -16.94383064 10.59086133 -20.83984375 13.62109375 Z " fill="#000000" transform="translate(341.83984375,301.37890625)"/>
<path d="M0 0 C0.71873291 -0.02682861 1.43746582 -0.05365723 2.17797852 -0.08129883 C5.89872739 -0.0543016 7.51791062 0.29160788 10.2890625 2.83984375 C12.21612658 6.28385314 12.34172699 7.98844617 11.58203125 11.765625 C10.8125 13.5625 10.8125 13.5625 8.1875 15.4375 C4.42158284 16.67476231 0.54998172 16.9866303 -3.375 17.4375 C-17.74657552 19.1683314 -31.08750964 26.14255162 -40.1875 37.5625 C-42.39218415 41.03864138 -44.32139547 44.64764357 -46.23046875 48.29296875 C-48.23306059 51.6386162 -50.23840219 54.02260715 -53.1875 56.5625 C-56.97204468 57.27210213 -58.65464413 56.84051176 -62.0625 55.0625 C-64.54498306 52.14193169 -64.57454758 50.4599478 -64.46386719 46.70703125 C-64.01424857 43.2181179 -62.57814593 40.33173162 -60.875 37.3125 C-60.51962158 36.66917725 -60.16424316 36.02585449 -59.7980957 35.36303711 C-50.39567921 19.08923735 -35.00605676 7.66907422 -17.125 2.25 C-11.38686985 0.82423243 -5.90987019 0.12522797 0 0 Z " fill="#000000" transform="translate(277.1875,60.4375)"/>
<path d="M0 0 C1.90625 0.4140625 1.90625 0.4140625 4.40625 1.9765625 C6.47476618 5.3379013 6.39130011 7.53366161 5.90625 11.4140625 C4.84375 13.7890625 4.84375 13.7890625 2.90625 15.4140625 C-1.06719161 16.51779628 -3.18374772 16.82949833 -6.96875 15.1015625 C-9.09375 13.4140625 -9.09375 13.4140625 -10.09375 11.4140625 C-10.49991229 7.75860185 -10.30809253 5.82488568 -8.59375 2.5390625 C-5.55206021 -0.04637382 -3.89367767 -0.27604431 0 0 Z " fill="#000000" transform="translate(69.09375,239.5859375)"/>
<path d="M0 0 C1.9375 1.0625 1.9375 1.0625 3 3 C4.13111674 7.07202027 4.47798094 9.08386986 2.5 12.875 C-0.76281849 15.64839572 -2.73561227 16.07481382 -7 16 C-9.9375 14.5625 -9.9375 14.5625 -12 12 C-12.93350908 7.99573739 -12.61452102 5.0242017 -10.5 1.5 C-6.74351164 -0.75389302 -4.35420619 -0.48380069 0 0 Z " fill="#000000" transform="translate(109,240)"/>
<path d="M0 0 C2.4375 1.5625 2.4375 1.5625 4 4 C4.72468526 8.42863214 4.49454049 10.28066838 1.9375 14 C-1 16 -1 16 -4.5625 16.125 C-8.66488116 14.78240253 -10.00630003 13.82125828 -12 10 C-12 6.22089384 -11.83289714 3.99306967 -9.375 1.0625 C-6.02317947 -0.43699866 -3.63019782 -0.45377473 0 0 Z " fill="#000000" transform="translate(146,240)"/>
</svg>
