<?xml version="1.0" encoding="UTF-8"?>
<svg version="1.1" xmlns="http://www.w3.org/2000/svg" width="512" height="512">
<path d="M0 0 C1.04800781 0.00563965 2.09601563 0.0112793 3.17578125 0.01708984 C31.3117433 0.45347378 54.65521354 12.14147272 74.58203125 31.51953125 C91.80208539 49.82645271 101.63888779 75.30565977 101.375 100.375 C101.36597656 101.50035156 101.35695313 102.62570313 101.34765625 103.78515625 C101.33025391 105.03619141 101.33025391 105.03619141 101.3125 106.3125 C101.89773438 106.26609375 102.48296875 106.2196875 103.0859375 106.171875 C124.53698572 105.27002913 146.62414451 114.70504742 162.5 128.75 C164.11057654 130.26404357 165.71510435 131.78455633 167.3125 133.3125 C168.34503906 134.23289063 168.34503906 134.23289063 169.3984375 135.171875 C184.17758698 148.84112788 194.26861282 171.26906195 195.48950195 191.20239258 C196.12422154 222.32388235 189.30396417 247.30209799 167.3125 270.3125 C157.96807677 279.38437755 146.56965802 286.77806004 134.3125 291.3125 C134.29848145 292.18032104 134.29848145 292.18032104 134.28417969 293.06567383 C133.97464586 308.31628433 132.73638831 319.83479472 123.3125 332.3125 C122.89613281 332.89386719 122.47976563 333.47523438 122.05078125 334.07421875 C113.48659793 345.10735582 99.98165585 352.20114656 88.2421875 359.296875 C85.34040161 361.05266972 82.48500393 362.83666928 79.6953125 364.765625 C78.74398438 365.42046875 77.79265625 366.0753125 76.8125 366.75 C76.0390625 367.30558594 75.265625 367.86117188 74.46875 368.43359375 C72.3125 369.3125 72.3125 369.3125 69.97827148 368.53540039 C47.225889 358.09793507 19.10806304 341.01539999 10.00390625 316.6015625 C7.93219912 309.74269031 8.3125 304.96398012 8.3125 297.3125 C-1.5875 297.3125 -11.4875 297.3125 -21.6875 297.3125 C-21.65269531 301.334375 -21.61789062 305.35625 -21.58203125 309.5 C-21.56271272 312.72456077 -21.54645342 315.949105 -21.53224945 319.1736908 C-21.51646507 322.56789939 -21.49540296 325.96188 -21.46118164 329.35595703 C-21.42466525 333.25819903 -21.4077425 337.16011791 -21.39453125 341.0625 C-21.37904739 342.26801514 -21.36356354 343.47353027 -21.34761047 344.71557617 C-21.3448616 358.55232073 -21.3448616 358.55232073 -26.03352356 363.82666016 C-31.17843599 368.4058032 -35.75288155 369.5611109 -42.49897766 369.57992554 C-43.1713914 369.58445665 -43.84380514 369.58898776 -44.53659505 369.59365618 C-46.78268658 369.60628465 -49.02853516 369.60468085 -51.2746582 369.60302734 C-52.88801382 369.60901361 -54.50136658 369.61581938 -56.11471558 369.62338257 C-60.49293153 369.64104066 -64.87106929 369.64573789 -69.24931741 369.64701414 C-71.98635625 369.6484365 -74.72337525 369.65270772 -77.46040916 369.65800858 C-87.01390214 369.67650879 -96.56733932 369.68467927 -106.12084961 369.68310547 C-115.01806328 369.68190433 -123.91503427 369.7030012 -132.81218654 369.7345928 C-140.45737131 369.76076899 -148.10247689 369.77147219 -155.74770612 369.77019465 C-160.31094374 369.76968538 -164.8739657 369.77534928 -169.43715858 369.79655075 C-173.73086342 369.81595562 -178.02414736 369.81604238 -182.31786728 369.80151749 C-183.88998595 369.79943101 -185.46213113 369.80412071 -187.03420448 369.8162384 C-203.46430034 369.9346381 -203.46430034 369.9346381 -210.54533386 363.66845703 C-214.71470576 357.20559579 -214.32521125 350.67456966 -214.17578125 343.1875 C-214.16643908 341.83131218 -214.15932961 340.47510731 -214.15434265 339.11889648 C-214.13538232 335.57407869 -214.08638087 332.03030873 -214.03082275 328.48590088 C-213.97939007 324.85923431 -213.95677781 321.23239603 -213.93164062 317.60546875 C-213.87824784 310.50738757 -213.79307215 303.41001271 -213.6875 296.3125 C-215.33504272 296.32410156 -215.33504272 296.32410156 -217.01586914 296.3359375 C-232.45151045 296.23740558 -247.49587428 287.75669472 -258.140625 277.0234375 C-271.47914633 262.82568627 -278.6654888 245.94649095 -278.6875 226.3125 C-278.11658203 215.89065205 -276.11725732 206.8564961 -271.6875 197.3125 C-271.31753906 196.51457031 -270.94757813 195.71664062 -270.56640625 194.89453125 C-262.4680997 179.06220184 -248.45787445 167.21280528 -231.61083984 161.62353516 C-224.64443224 159.54622682 -218.00585185 158.07642413 -210.6875 158.3125 C-210.84605469 157.69117188 -211.00460938 157.06984375 -211.16796875 156.4296875 C-214.35621665 137.30020012 -210.62631197 117.56438131 -199.47119141 101.56835938 C-188.96358693 87.45260274 -174.35074328 77.05791709 -156.6875 74.3125 C-136.23590824 72.54624405 -117.03383205 76.29222063 -100.6875 89.3125 C-98.8208331 87.4458331 -98.93120325 84.25620558 -98.5 81.75 C-93.74723098 56.45487691 -79.29722051 33.08470901 -58.15820312 18.22167969 C-40.66299929 6.44778356 -21.13195795 -0.12038062 0 0 Z " fill="#5BADFE" transform="translate(308.6875,86.6875)"/>
<path d="M0 0 C1.6466041 -0.00514355 3.29320269 -0.01242811 4.93978882 -0.02168274 C9.39433008 -0.04014673 13.84827035 -0.02729119 18.30278635 -0.00759244 C22.97114123 0.00883133 27.63945917 -0.00002376 32.30783081 -0.00511169 C40.14411995 -0.00962759 47.98016999 0.00620812 55.81640625 0.03417969 C64.87110059 0.06625169 73.92536431 0.06620556 82.98008931 0.04896492 C91.70038246 0.03309407 100.42051802 0.03983553 109.14080429 0.05690193 C112.84803345 0.06376733 116.55513608 0.0627453 120.26236343 0.05535698 C124.62756497 0.04768803 128.99227706 0.05983993 133.35739517 0.08720589 C134.95774889 0.09408359 136.55814838 0.09419425 138.15850067 0.08699036 C140.34604822 0.07827884 142.53209098 0.09427733 144.71951294 0.11643982 C145.9424814 0.11924674 147.16544987 0.12205366 148.42547798 0.12494564 C153.60181238 0.90946964 156.6745594 3.39315088 160.07763672 7.25610352 C162.48776436 10.648135 162.89970806 12.42146925 162.97045898 16.53735352 C162.99038406 17.57333176 163.01030914 18.60931 163.03083801 19.67668152 C163.05593697 21.38662041 163.05593697 21.38662041 163.08154297 23.13110352 C163.10250534 24.32604935 163.12346771 25.52099518 163.14506531 26.75215149 C163.20051327 30.02867793 163.25111513 33.30522579 163.298172 36.58188248 C163.32757858 38.62705986 163.35809192 40.6722184 163.38879395 42.71737671 C163.53681394 52.68837591 163.65721654 62.6595965 163.76513672 72.63110352 C163.77290886 73.33477303 163.780681 74.03844254 163.78868866 74.76343536 C163.88530502 83.55514363 163.95864917 92.34648747 163.99630737 101.13867188 C164.00880806 103.66474335 164.02628317 106.19079535 164.04885864 108.71679688 C164.07858901 112.24694893 164.088609 115.77662214 164.09326172 119.30688477 C164.1055632 120.34073807 164.11786469 121.37459137 164.13053894 122.43977356 C164.11118771 128.76334077 163.83514659 135.16009614 159.41925049 140.15278625 C154.26112038 144.71790538 149.70456511 145.879701 142.95365906 145.89852905 C142.28124532 145.90306017 141.60883158 145.90759128 140.91604167 145.9122597 C138.66995013 145.92488817 136.42410156 145.92328436 134.17797852 145.92163086 C132.5646229 145.92761712 130.95127014 145.93442289 129.33792114 145.94198608 C124.95970519 145.95964417 120.58156743 145.96434141 116.20331931 145.96561766 C113.46628047 145.96704002 110.72926146 145.97131124 107.99222755 145.97661209 C98.43873458 145.99511231 88.8852974 146.00328278 79.33178711 146.00170898 C70.43457343 146.00050785 61.53760245 146.02160472 52.64045018 146.05319631 C44.99526541 146.07937251 37.35015983 146.0900757 29.7049306 146.08879817 C25.14169298 146.08828889 20.57867102 146.0939528 16.01547813 146.11515427 C11.7217733 146.13455913 7.42848936 146.1346459 3.13476944 146.120121 C1.56265076 146.11803453 -0.00949441 146.12272422 -1.58156776 146.13484192 C-17.96515784 146.25290648 -17.96515784 146.25290648 -23.23486328 141.63110352 C-28.82561087 135.78839365 -28.94977548 129.58100986 -28.8659668 121.83422852 C-28.8731221 120.67548218 -28.8802774 119.51673584 -28.88764954 118.32287598 C-28.9045003 114.50854567 -28.88515302 110.69539661 -28.86376953 106.88110352 C-28.86459856 104.22125691 -28.86700424 101.56145077 -28.87107849 98.90161133 C-28.8755896 93.33344029 -28.85979125 87.76560624 -28.83178711 82.19750977 C-28.79973926 75.77622102 -28.79975392 69.35553979 -28.81700188 62.93420792 C-28.83291113 56.73621313 -28.82610533 50.53843932 -28.80906487 44.3404541 C-28.80389042 41.71228532 -28.80435587 39.08409905 -28.81060982 36.45593262 C-28.8160744 32.77956822 -28.79564437 29.10422635 -28.76831055 25.42797852 C-28.77483643 24.34722046 -28.7813623 23.2664624 -28.78808594 22.1529541 C-28.69657695 14.89567963 -27.82572573 9.47100174 -22.76082897 4.05484104 C-16.25668583 -1.0571281 -7.8369849 -0.06221054 0 0 Z " fill="#FCC62D" transform="translate(123.23486328125,310.368896484375)"/>
<path d="M0 0 C0.97468231 0.32626373 1.94936462 0.65252747 2.95358276 0.98867798 C4.06468414 1.35931366 5.17578552 1.72994934 6.32055664 2.11181641 C7.51027069 2.51284576 8.69998474 2.91387512 9.92575073 3.32705688 C11.15453949 3.74025177 12.38332825 4.15344666 13.64935303 4.5791626 C16.24408631 5.45270628 18.83784761 6.32907477 21.43112183 7.2069397 C24.7517033 8.33033519 28.07591926 9.44254034 31.40112495 10.55216026 C34.57864531 11.61515623 37.75188706 12.69069284 40.92575073 13.76455688 C42.7163945 14.36002823 42.7163945 14.36002823 44.54321289 14.9675293 C45.64800995 15.3444693 46.75280701 15.7214093 47.89108276 16.10977173 C49.35071945 16.60155411 49.35071945 16.60155411 50.83984375 17.10327148 C53.40059155 18.2258107 54.7308268 18.86402194 56.29293823 21.17861938 C56.68061829 23.97097778 56.68061829 23.97097778 56.69699097 27.40322876 C56.70967514 28.68886719 56.72235931 29.97450562 56.73542786 31.29910278 C56.73337482 32.70685994 56.73038547 34.114616 56.72653198 35.52236938 C56.73109589 36.97146855 56.73640208 38.42056555 56.74241638 39.86965942 C56.75135961 42.91283936 56.74891581 45.95575716 56.73898315 48.99893188 C56.72756806 52.87117447 56.74758195 56.74249495 56.77690029 60.61461639 C56.79539687 63.61239248 56.79494207 66.60995389 56.78926277 69.60777283 C56.78911078 71.03331279 56.79505263 72.45886848 56.80755424 73.88435364 C56.90663708 87.04984034 54.23309864 96.66544497 46.29293823 107.17861938 C45.87657104 107.75998657 45.46020386 108.34135376 45.03121948 108.94033813 C36.46703616 119.97347521 22.96209409 127.06726594 11.22262573 134.16299438 C8.32083985 135.9187891 5.46544216 137.70278866 2.67575073 139.63174438 C1.24875854 140.61401001 1.24875854 140.61401001 -0.20706177 141.61611938 C-0.98049927 142.17170532 -1.75393677 142.72729126 -2.55081177 143.29971313 C-4.70706177 144.17861938 -4.70706177 144.17861938 -7.04129028 143.40151978 C-29.79367277 132.96405445 -57.91149873 115.88151937 -67.01565552 91.46768188 C-68.3827588 86.94156594 -68.84342228 82.72369404 -68.89993286 77.99893188 C-68.91599579 76.77416138 -68.93205872 75.54939087 -68.9486084 74.2875061 C-68.99317116 68.72061499 -69.03450939 63.15384944 -69.05715942 57.58682251 C-69.07052645 54.64770581 -69.09844105 51.70927884 -69.13919067 48.77041626 C-69.18852426 45.21137654 -69.21327925 41.65296442 -69.22038651 38.09359741 C-69.23034125 36.08549534 -69.26457289 34.07756094 -69.29919434 32.06973267 C-69.27850347 23.17807037 -69.27850347 23.17807037 -66.93875122 19.08584595 C-62.02893209 16.18824777 -56.89533808 14.50818267 -51.47659302 12.78799438 C-50.28982468 12.39791199 -49.10305634 12.00782959 -47.88032532 11.60592651 C-44.73957314 10.57629536 -41.59501858 9.55964588 -38.44796753 8.54946899 C-35.24002324 7.51667237 -32.03711674 6.46850681 -28.83401489 5.42080688 C-25.23718868 4.24460852 -21.63984817 3.07051733 -18.03855896 1.90805054 C-16.44131233 1.39181122 -16.44131233 1.39181122 -14.8117981 0.86514282 C-13.87201614 0.56267639 -12.93223419 0.26020996 -11.963974 -0.05142212 C-7.09315666 -1.71312927 -5.08996857 -1.54440566 0 0 Z " fill="#2DD62D" transform="translate(385.7070617675781,311.8213806152344)"/>
<path d="M0 0 C1.04800781 0.00563965 2.09601563 0.0112793 3.17578125 0.01708984 C31.3117433 0.45347378 54.65521354 12.14147272 74.58203125 31.51953125 C91.80208539 49.82645271 101.63888779 75.30565977 101.375 100.375 C101.36597656 101.50035156 101.35695313 102.62570313 101.34765625 103.78515625 C101.33025391 105.03619141 101.33025391 105.03619141 101.3125 106.3125 C99.03344355 102.57872667 98.6264242 98.61924751 98 94.375 C94.60801478 73.61543009 83.5766099 53.94076778 66.68896484 41.07568359 C59.0621914 35.62861105 51.13740672 31.51121261 42.3125 28.3125 C41.55710937 28.01730469 40.80171875 27.72210938 40.0234375 27.41796875 C28.5114227 23.16898874 16.39355806 22.98729378 4.28051758 23.05175781 C1.8540817 23.06259341 -0.57163166 23.05173944 -2.99804688 23.0390625 C-4.55989745 23.04038243 -6.12174757 23.04294137 -7.68359375 23.046875 C-8.7571537 23.04080231 -8.7571537 23.04080231 -9.85240173 23.03460693 C-14.16272386 23.07466634 -17.72129269 23.59802246 -21.6875 25.3125 C-23.02974264 26.972 -24.36243069 28.63925558 -25.6875 30.3125 C-28.03784891 31.68749603 -30.30464306 32.89565019 -32.75 34.0625 C-39.8586499 37.65395711 -45.77116129 41.94743412 -51.6875 47.3125 C-52.30753906 47.83972656 -52.92757812 48.36695313 -53.56640625 48.91015625 C-71.7433576 65.40015156 -79.00595403 91.02393267 -82.6875 114.3125 C-83.44933594 113.54808594 -84.21117187 112.78367187 -84.99609375 111.99609375 C-95.90485825 101.11899475 -108.90731126 94.11356585 -124.5625 93.9375 C-138.60432139 94.09483133 -152.49479466 98.47321246 -162.875 108.26953125 C-168.64238021 114.77026369 -172.45492259 121.95833938 -174.6875 130.3125 C-175.03941406 131.31925781 -175.39132813 132.32601562 -175.75390625 133.36328125 C-177.19819744 138.41119736 -176.90055117 143.5448214 -176.8125 148.75 C-176.80347656 149.76771484 -176.79445313 150.78542969 -176.78515625 151.83398438 C-176.76174698 154.32707156 -176.728957 156.81965859 -176.6875 159.3125 C-177.61949219 159.41046875 -178.55148438 159.5084375 -179.51171875 159.609375 C-198.28441052 161.81122762 -214.68556952 167.88273689 -227.6875 182.3125 C-239.74471734 197.85602527 -245.55277582 215.55297968 -243.6875 235.3125 C-241.34158901 252.38882672 -234.36799012 266.57398914 -221.6875 278.3125 C-220.1439612 279.34152586 -218.58375786 280.34652003 -217 281.3125 C-215.08203125 282.6015625 -215.08203125 282.6015625 -213.6875 284.3125 C-213.02797648 288.39626966 -213.21021088 292.21576835 -213.6875 296.3125 C-227.90783946 297.2820686 -243.08627204 290.48474085 -253.72387695 281.2800293 C-268.80577967 267.39483491 -277.52535097 250.39881036 -278.68359375 229.796875 C-278.69665497 218.14626885 -276.61088848 207.92003378 -271.6875 197.3125 C-271.31753906 196.51457031 -270.94757813 195.71664062 -270.56640625 194.89453125 C-262.4680997 179.06220184 -248.45787445 167.21280528 -231.61083984 161.62353516 C-224.64443224 159.54622682 -218.00585185 158.07642413 -210.6875 158.3125 C-210.84605469 157.69117188 -211.00460938 157.06984375 -211.16796875 156.4296875 C-214.35621665 137.30020012 -210.62631197 117.56438131 -199.47119141 101.56835938 C-188.96358693 87.45260274 -174.35074328 77.05791709 -156.6875 74.3125 C-136.23590824 72.54624405 -117.03383205 76.29222063 -100.6875 89.3125 C-98.8208331 87.4458331 -98.93120325 84.25620558 -98.5 81.75 C-93.74723098 56.45487691 -79.29722051 33.08470901 -58.15820312 18.22167969 C-40.66299929 6.44778356 -21.13195795 -0.12038062 0 0 Z " fill="#2A93FC" transform="translate(308.6875,86.6875)"/>
<path d="M0 0 C4.34347879 3.32238927 8.18461372 7.09350001 12 11 C12.67804688 11.65742188 13.35609375 12.31484375 14.0546875 12.9921875 C28.38168188 27.82858613 30.44264257 47.66894611 30.20483398 67.21166992 C30.15022211 70.14139991 30.07708486 73.07077515 30 76 C34.29 76 38.58 76 43 76 C43 76.33 43 76.66 43 77 C-5.51 77 -54.02 77 -104 77 C-104 48.42652376 -103.229397 28.06253999 -83.98046875 7.8828125 C-75.31772554 -0.37813372 -64.63474268 -6.26604103 -53 -9 C-51.7625 -9.391875 -50.525 -9.78375 -49.25 -10.1875 C-32.79797351 -14.02959002 -13.95274818 -8.98146023 0 0 Z " fill="#FDFEFF" transform="translate(228,234)"/>
<path d="M0 0 C0.99 0.33 1.98 0.66 3 1 C3.1247355 9.93730099 3.18914641 18.87249454 3.17878246 27.81066608 C3.17581653 31.96229884 3.19280349 36.11176005 3.25708008 40.26293945 C3.31847798 44.27742978 3.32525518 48.28879468 3.29583168 52.30360985 C3.29394347 53.82692378 3.31099165 55.35039482 3.34822655 56.87325478 C3.51788932 64.29083808 3.29894496 70.39042564 -1.92781353 76.04410839 C-8.07660155 82 -8.07660155 82 -11 82 C-11.26216309 81.40461426 -11.52432617 80.80922852 -11.79443359 80.19580078 C-12.98317313 77.50339249 -14.17899078 74.81418637 -15.375 72.125 C-15.7875 71.18785156 -16.2 70.25070312 -16.625 69.28515625 C-17.22441406 67.94130859 -17.22441406 67.94130859 -17.8359375 66.5703125 C-18.20251465 65.74289551 -18.5690918 64.91547852 -18.94677734 64.06298828 C-19.94137141 61.85312405 -19.94137141 61.85312405 -22 60 C-24.68839385 59.73008094 -27.29141936 59.91262643 -30 60 C-30.34005368 65.48034899 -29.35653174 69.35859267 -26.97265625 74.2109375 C-26.66428329 74.86454254 -26.35591034 75.51814758 -26.03819275 76.19155884 C-25.0587829 78.25892853 -24.06079492 80.31669476 -23.0625 82.375 C-22.39529611 83.779384 -21.72926853 85.1843275 -21.06445312 86.58984375 C-18.58822582 92.68777779 -18.58822582 92.68777779 -15 98 C-12.15829917 98.45970397 -12.15829917 98.45970397 -9 98 C-6.42422812 96.07326052 -6.42422812 96.07326052 -4.25 93.5 C-2.86352596 91.97204902 -1.45310445 90.46472929 0 89 C0.66 89 1.32 89 2 89 C2 107.81 2 126.62 2 146 C-52.34008172 116.35995542 -52.34008172 116.35995542 -60 91 C-60.88812868 87.22643539 -61.14654278 83.69375102 -61.19287109 79.8203125 C-61.20893402 78.59554199 -61.22499695 77.37077148 -61.24154663 76.10888672 C-61.28610939 70.5419956 -61.32744763 64.97523005 -61.35009766 59.40820312 C-61.36346469 56.46908642 -61.39137929 53.53065945 -61.43212891 50.59179688 C-61.48146249 47.03275716 -61.50621748 43.47434504 -61.51332474 39.91497803 C-61.52327948 37.90687596 -61.55751113 35.89894155 -61.59213257 33.89111328 C-61.5714417 24.99945098 -61.5714417 24.99945098 -59.23168945 20.90722656 C-54.32187033 18.00962839 -49.18827631 16.32956328 -43.76953125 14.609375 C-42.58276291 14.2192926 -41.39599457 13.82921021 -40.17326355 13.42730713 C-37.03251137 12.39767597 -33.88795681 11.38102649 -30.74090576 10.37084961 C-27.53296148 9.33805299 -24.33005497 8.28988742 -21.12695312 7.2421875 C-17.53012691 6.06598913 -13.9327864 4.89189794 -10.33149719 3.72943115 C-8.73425056 3.21319183 -8.73425056 3.21319183 -7.10473633 2.68652344 C-6.16495438 2.38405701 -5.22517242 2.08159058 -4.25691223 1.7699585 C-2.0027636 1.05740887 -2.0027636 1.05740887 0 0 Z " fill="#29B933" transform="translate(378,310)"/>
<path d="M0 0 C9.07647387 7.17674678 14.01856591 15.11819773 17.6875 26.125 C17.6875 35.365 17.6875 44.605 17.6875 54.125 C-9.3725 54.125 -36.4325 54.125 -64.3125 54.125 C-64.3125 16.21784333 -64.3125 16.21784333 -52.3125 4.125 C-36.05651721 -9.30385535 -18.20731992 -10.30603015 0 0 Z " fill="#5CAEFF" transform="translate(214.3125,255.875)"/>
<path d="M0 0 C0.89605957 0.11754639 1.79211914 0.23509277 2.71533203 0.35620117 C8.3431444 1.18041288 14.17268304 2.14858784 19.3125 4.6875 C21.3125 7.6875 21.3125 7.6875 21.125 10.6875 C20.27948516 13.80940093 19.82355377 14.77518898 17.3125 16.6875 C15.37817383 16.81665039 15.37817383 16.81665039 13.20703125 16.47265625 C12.40861816 16.35422363 11.61020508 16.23579102 10.78759766 16.11376953 C9.97081543 15.97310059 9.1540332 15.83243164 8.3125 15.6875 C7.55888184 15.56358887 6.80526367 15.43967773 6.02880859 15.31201172 C4.49436861 15.05588616 2.96060578 14.79567596 1.42749023 14.53173828 C-27.92919718 9.61287665 -56.23288155 14.20378911 -82.6875 27.6875 C-83.66332031 28.17089844 -84.63914062 28.65429688 -85.64453125 29.15234375 C-96.91096054 34.97091453 -106.49145826 43.03999408 -115.6875 51.6875 C-116.27789062 52.2134375 -116.86828125 52.739375 -117.4765625 53.28125 C-132.48309429 67.22096674 -142.43364825 86.95249204 -148.35644531 106.27807617 C-150.23047932 112.21351957 -150.23047932 112.21351957 -152.6875 114.76171875 C-155.6388108 116.12785285 -157.6207937 115.55417787 -160.6875 114.6875 C-162.6875 112.6875 -162.6875 112.6875 -163.125 109.5 C-162.50088125 89.12435851 -146.35188201 65.44656117 -133.6875 50.6875 C-132.98882812 49.86636719 -132.29015625 49.04523438 -131.5703125 48.19921875 C-106.85333679 19.91983195 -71.35497507 1.92412136 -33.85058594 -1.16748047 C-22.45932403 -1.93118358 -11.31659021 -1.49567314 0 0 Z " fill="#2CCFFC" transform="translate(170.6875,57.3125)"/>
<path d="M0 0 C-0.77859375 0.60585938 -1.5571875 1.21171875 -2.359375 1.8359375 C-5.57416442 4.47054303 -8.13318351 7.26636702 -10 11 C-10.09895922 12.59554044 -10.13505444 14.19516495 -10.14044189 15.79376221 C-10.14615204 16.80595322 -10.15186218 17.81814423 -10.15774536 18.86100769 C-10.15886322 19.97583023 -10.15998108 21.09065277 -10.16113281 22.23925781 C-10.16609772 23.41009415 -10.17106262 24.58093048 -10.17617798 25.7872467 C-10.18829978 29.00437657 -10.19574857 32.22147007 -10.20018864 35.43861866 C-10.20311918 37.44913069 -10.20722402 39.45963702 -10.21169281 41.47014618 C-10.22537142 47.76205299 -10.23503547 54.05394675 -10.2388947 60.3458674 C-10.24337215 67.60577444 -10.26090378 74.8654929 -10.2898953 82.12534261 C-10.31153014 87.73817302 -10.32159999 93.35095047 -10.32293582 98.96382213 C-10.32398285 102.31530297 -10.32986837 105.66660663 -10.34775543 109.01804352 C-10.36479605 112.75989582 -10.36294004 116.50128877 -10.35644531 120.24316406 C-10.3656601 121.34988968 -10.37487488 122.4566153 -10.3843689 123.59687805 C-10.35424103 129.13362253 -10.21486756 133.26286431 -7 138 C-4.61881834 140.22168366 -4.61881834 140.22168366 -2 142 C-0.66464102 142.99729342 0.6690441 143.99683791 2 145 C-17.33299749 145.79089535 -17.33299749 145.79089535 -23 141 C-28.36501899 134.89929507 -28.71611412 129.06100407 -28.63110352 121.203125 C-28.63825882 120.04437866 -28.64541412 118.88563232 -28.65278625 117.69177246 C-28.66963701 113.87744216 -28.65028973 110.06429309 -28.62890625 106.25 C-28.62973527 103.5901534 -28.63214096 100.93034726 -28.63621521 98.27050781 C-28.64072631 92.70233677 -28.62492797 87.13450273 -28.59692383 81.56640625 C-28.56487597 75.1451175 -28.56489064 68.72443627 -28.5821386 62.3031044 C-28.59804785 56.10510962 -28.59124205 49.90733581 -28.57420158 43.70935059 C-28.56902714 41.0811818 -28.56949259 38.45299554 -28.57574654 35.8248291 C-28.58121112 32.1484647 -28.56078109 28.47312283 -28.53344727 24.796875 C-28.53997314 23.71611694 -28.54649902 22.63535889 -28.55322266 21.52185059 C-28.46405868 14.45055094 -27.51603917 8.53748261 -22.36731815 3.35736084 C-16.1929769 -1.82455653 -7.53592039 -0.41154905 0 0 Z " fill="#F7AC03" transform="translate(123,311)"/>
<path d="M0 0 C1.12306908 3.29901541 1.33257958 5.09728399 0.125 8.375 C-3.34163902 11.02595925 -6.78997908 10.45199611 -11 10 C-12.58641152 9.6816385 -14.16966511 9.34727104 -15.75 9 C-40.31416447 4.21119374 -66.47814007 10.32720052 -87.30761719 23.83447266 C-107.47844749 37.72592445 -120.77239453 57.52640696 -127.9453125 80.85546875 C-129 83 -129 83 -130.95703125 84.3125 C-133.70045116 85.23571588 -135.27184355 84.90938548 -138 84 C-139.6484375 82.68359375 -139.6484375 82.68359375 -141 81 C-141.33367374 60.97957587 -125.22221278 40.22706119 -112.421875 26.43359375 C-89.16159514 3.06076415 -31.13131809 -23.0348947 0 0 Z " fill="#2CCFFC" transform="translate(182,97)"/>
<path d="M0 0 C4.59433484 2.78222668 8.26931297 7.1126264 9.9609375 12.1875 C10.69113316 19.22867244 10.55739898 24.66480065 6.4453125 30.56640625 C4.9609375 32.1875 4.9609375 32.1875 2.8996582 33.28930664 C0.42854277 35.70876546 0.48020738 37.52084203 0.43223572 40.88790894 C0.44041824 41.64419586 0.44860077 42.40048279 0.45703125 43.1796875 C0.44761002 43.96264191 0.43818878 44.74559631 0.42848206 45.55227661 C0.3997943 48.05594985 0.3967545 50.55867558 0.3984375 53.0625 C0.3948263 55.55904543 0.3852376 58.05489853 0.35768127 60.55130005 C0.34093766 62.10384416 0.33798234 63.65661563 0.35069275 65.209198 C0.30701631 69.71863843 -0.2240021 72.62046293 -3.0390625 76.1875 C-6.80405831 78.6974972 -8.58199856 78.80226744 -13.0390625 78.1875 C-16.43833828 75.03494089 -18.30246848 72.89164807 -18.58740234 68.20507812 C-18.58128059 66.70936418 -18.55095837 65.21360817 -18.5 63.71875 C-18.49696085 62.07942783 -18.49437033 60.44010478 -18.4921875 58.80078125 C-18.45876715 56.23970116 -18.41388588 53.67934932 -18.35839844 51.11865234 C-18.31351442 48.63045455 -18.31115047 46.14478962 -18.3125 43.65625 C-18.28255951 42.89671021 -18.25261902 42.13717041 -18.22177124 41.35461426 C-18.23722157 38.03311767 -18.30958029 36.00408499 -20.57818604 33.46459961 C-22.42387043 31.89037667 -22.42387043 31.89037667 -24.34414673 30.58068848 C-27.85413935 27.69554141 -28.67843901 23.50450594 -29.3515625 19.1796875 C-29.6871461 13.83132383 -28.23287456 9.47835554 -25.0390625 5.1875 C-17.61346153 -1.70023048 -9.58214206 -3.93890425 0 0 Z " fill="#FEFDFA" transform="translate(200.0390625,344.8125)"/>
<path d="M0 0 C1.85119065 2.70771169 2.0130103 3.78316159 1.8125 7.125 C1 10 1 10 -2 12 C-4.03125 11.9765625 -4.03125 11.9765625 -6.5 11.625 C-27.54895447 9.33281638 -46.09355248 11.71888792 -63.375 24.8125 C-74.06746539 33.94491716 -79.88416763 45.39614396 -85.04296875 58.2578125 C-86 60 -86 60 -89 62 C-92.0625 61.8125 -92.0625 61.8125 -95 61 C-97.51528669 57.22706996 -97.33479101 55.53379732 -96.80078125 51.15234375 C-94.29967052 41.30650785 -88.55101453 31.67924481 -82 24 C-81.5771875 23.43539062 -81.154375 22.87078125 -80.71875 22.2890625 C-64.7683376 1.79463726 -24.93817819 -12.75464076 0 0 Z " fill="#2CCFFC" transform="translate(172,129)"/>
<path d="M0 0 C16.25709003 12.38039933 26.96039492 29.84722202 31 49.83984375 C31.25076186 53.23109938 30.85801143 56.05236781 28.9140625 58.87109375 C26.4955298 60.51224094 25.02855373 60.48826743 22.1640625 60.05859375 C19.54754981 57.95989469 18.69787785 56.2357642 17.98828125 52.99609375 C17.80354248 52.20452881 17.61880371 51.41296387 17.4284668 50.59741211 C17.23808838 49.75960205 17.04770996 48.92179199 16.8515625 48.05859375 C12.54977226 30.62381617 2.72408938 16.70957511 -12.4609375 6.93359375 C-22.84065953 0.94961181 -33.79147697 -2.18476371 -45.7578125 -1.93359375 C-47.66626953 -1.90845703 -47.66626953 -1.90845703 -49.61328125 -1.8828125 C-51.61026374 -1.84943128 -53.60726985 -1.81591591 -55.60400391 -1.77001953 C-57.55086102 -1.72774818 -59.49811844 -1.70538331 -61.4453125 -1.68359375 C-63.1773291 -1.65048096 -63.1773291 -1.65048096 -64.94433594 -1.61669922 C-67.8359375 -1.94140625 -67.8359375 -1.94140625 -69.71191406 -3.27001953 C-71.46640456 -5.8788905 -71.21766487 -7.88758728 -70.8359375 -10.94140625 C-69.29787539 -13.28897474 -68.3014391 -13.82630443 -65.58276367 -14.49853516 C-41.84993394 -18.32498197 -19.65364704 -13.45435617 0 0 Z " fill="#BADDFE" transform="translate(355.8359375,123.94140625)"/>
<path d="M0 0 C0 0.33 0 0.66 0 1 C-0.77601563 1.08636719 -1.55203125 1.17273438 -2.3515625 1.26171875 C-20.47270242 3.6187644 -37.09136924 10.97535775 -48.90234375 25.30859375 C-63.07998842 44.69815156 -63.16810584 62.04317526 -64 87 C-31.33 87 1.34 87 35 87 C34.89528981 59.71295896 34.89528981 59.71295896 22.1171875 38.0234375 C16.14634151 32.52089315 9.75080352 29.32524105 2 27 C2 26.67 2 26.34 2 26 C14.88651724 26.48998164 25.17675645 30.52816517 34.26171875 39.875 C40.34735845 47.31452358 44.2837219 56.07431299 44.1953125 65.7109375 C44.19031738 66.83290527 44.18532227 67.95487305 44.18017578 69.11083984 C44.16196777 70.5180127 44.14375977 71.92518555 44.125 73.375 C44.08375 77.87125 44.0425 82.3675 44 87 C53.9 87 63.8 87 74 87 C74 87.33 74 87.66 74 88 C25.49 88 -23.02 88 -73 88 C-73 59.42652376 -72.229397 39.06253999 -52.98046875 18.8828125 C-44.31772554 10.62186628 -33.63474268 4.73395897 -22 2 C-20.7625 1.608125 -19.525 1.21625 -18.25 0.8125 C-12.31958332 -0.67010417 -6.06264047 -0.153269 0 0 Z " fill="#BBDEFF" transform="translate(197,223)"/>
<path d="M0 0 C2.9375 0.75 2.9375 0.75 4.9375 2.75 C5.47538537 6.51527965 5.33111537 8.19159331 3.11764526 11.33175659 C2.26526276 12.18891266 1.41288025 13.04606873 0.53466797 13.92919922 C-0.16776283 14.64740089 -0.16776283 14.64740089 -0.88438416 15.38011169 C-2.4316366 16.95370465 -3.99972899 18.50440602 -5.5703125 20.0546875 C-6.65541035 21.14382865 -7.73961633 22.23385902 -8.82296753 23.32473755 C-11.09500637 25.60561485 -13.37752401 27.87530622 -15.66796875 30.13769531 C-18.60069453 33.03623564 -21.50565567 35.96088374 -24.4032917 38.89445305 C-26.63672008 41.14958004 -28.88426471 43.39019901 -31.13631821 45.6267128 C-32.21319806 46.69959487 -33.2856516 47.77693903 -34.35351944 48.85879135 C-35.84938911 50.36993027 -37.36320597 51.86045267 -38.88330078 53.34716797 C-39.74045685 54.19955048 -40.59761292 55.05193298 -41.48074341 55.93014526 C-44.6093536 58.1354717 -46.31166005 58.23511508 -50.0625 57.75 C-51.53564453 56.42407227 -51.53564453 56.42407227 -52.5703125 54.50390625 C-52.97282227 53.77187988 -53.37533203 53.03985352 -53.79003906 52.28564453 C-54.41990723 51.03050049 -54.41990723 51.03050049 -55.0625 49.75 C-55.53655273 48.82687012 -56.01060547 47.90374023 -56.49902344 46.95263672 C-58.03116409 43.88685233 -59.49037077 40.79423379 -60.9375 37.6875 C-61.44796875 36.63755859 -61.9584375 35.58761719 -62.484375 34.50585938 C-67.05598232 24.68925932 -67.05598232 24.68925932 -65.0625 18.75 C-62.18779507 17.31264754 -60.24355412 17.36827351 -57.0625 17.75 C-53.3014569 21.60844063 -51.3735677 26.05020429 -49.3125 30.9375 C-48.99667969 31.66130859 -48.68085938 32.38511719 -48.35546875 33.13085938 C-46.0625 38.46623038 -46.0625 38.46623038 -46.0625 40.75 C-40.60471741 36.09071695 -35.42761092 31.24203976 -30.38671875 26.13671875 C-29.34896049 25.09328056 -29.34896049 25.09328056 -28.29023743 24.02876282 C-26.10768289 21.834117 -23.92844013 19.6362294 -21.75 17.4375 C-18.86094894 14.52186549 -15.96860442 11.60955647 -13.07421875 8.69921875 C-12.4148381 8.03153976 -11.75545746 7.36386078 -11.07609558 6.6759491 C-10.46147964 6.05802994 -9.84686371 5.44011078 -9.21362305 4.8034668 C-8.67593796 4.26054489 -8.13825287 3.71762299 -7.58427429 3.1582489 C-4.91880689 0.69162717 -3.69430746 -0.30157612 0 0 Z " fill="#FAFDFA" transform="translate(413.0625,351.25)"/>
<path d="M0 0 C0.00142502 0.81637939 0.00285004 1.63275879 0.00431824 2.47387695 C0.02228883 10.23933152 0.06431179 18.00413564 0.13209057 25.76930237 C0.1661065 29.75968663 0.19143035 33.74969839 0.19555664 37.74023438 C0.19989504 41.60505199 0.22880484 45.46903297 0.27343178 49.33358765 C0.28623272 50.79400727 0.29077774 52.25452794 0.28615379 53.71499634 C0.23607618 74.37146151 7.35231714 90.24934573 22 105 C24.27749182 107.09362092 26.59273936 109.05370416 29 111 C20.42882623 111 10.72003868 100.60865854 4.69921875 94.79296875 C-4.54391523 85.22879972 -10.03275777 74.20714018 -10.19287109 60.8203125 C-10.20893402 59.59554199 -10.22499695 58.37077148 -10.24154663 57.10888672 C-10.28610939 51.5419956 -10.32744763 45.97523005 -10.35009766 40.40820312 C-10.36346469 37.46908642 -10.39137929 34.53065945 -10.43212891 31.59179688 C-10.48146249 28.03275716 -10.50621748 24.47434504 -10.51332474 20.91497803 C-10.52327948 18.90687596 -10.55751113 16.89894155 -10.59213257 14.89111328 C-10.568561 4.76150324 -10.568561 4.76150324 -7.77978516 1.6328125 C-4.75663108 -0.14295199 -3.4054318 -0.14939279 0 0 Z " fill="#03AC11" transform="translate(327,329)"/>
<path d="M0 0 C12.88651724 0.48998164 23.17675645 4.52816517 32.26171875 13.875 C38.34735845 21.31452358 42.2837219 30.07431299 42.1953125 39.7109375 C42.19031738 40.83290527 42.18532227 41.95487305 42.18017578 43.11083984 C42.16196777 44.5180127 42.14375977 45.92518555 42.125 47.375 C42.08375 51.87125 42.0425 56.3675 42 61 C51.9 61 61.8 61 72 61 C72 61.33 72 61.66 72 62 C23.49 62 -25.02 62 -75 62 C-75 61.67 -75 61.34 -75 61 C-39.36 61 -3.72 61 33 61 C32.89528981 33.71295896 32.89528981 33.71295896 20.1171875 12.0234375 C14.14634151 6.52089315 7.75080352 3.32524105 0 1 C0 0.67 0 0.34 0 0 Z " fill="#BCD8E8" transform="translate(199,249)"/>
<path d="M0 0 C5.96836885 -0.77848289 9.66924963 0.84650319 14.6875 4.09765625 C18.92485179 7.58345071 21.29389197 11.67938385 22.43359375 17.0390625 C22.78687474 22.4132157 20.97705455 27.56625833 18 32 C16.99356445 32.69649658 15.98712891 33.39299316 14.95019531 34.1105957 C12.09702591 36.45775165 12.01138575 36.93765653 11.29052734 40.88476562 C11.27667449 42.39193943 11.29347163 43.89961088 11.3359375 45.40625 C11.33171783 46.20857056 11.32749817 47.01089111 11.32315063 47.83752441 C11.31230917 50.39263199 11.34031203 52.94513459 11.375 55.5 C11.39908554 58.05451272 11.41421557 60.60785532 11.40542603 63.16247559 C11.40086693 64.74856309 11.41541863 66.33485438 11.45175171 67.92053223 C11.44996121 71.59955144 11.12277831 73.79602795 9.20947266 76.97460938 C6.26942962 79.66970297 3.90717729 79.77458593 0 80 C1.875 75.25 1.875 75.25 3 73 C3.12048916 70.33823413 3.18561194 67.69809567 3.2109375 65.03515625 C3.23900096 63.41470335 3.26766539 61.79426077 3.296875 60.17382812 C3.33818223 57.61499259 3.37506321 55.05635075 3.40136719 52.49731445 C3.42893363 50.03035579 3.47479773 47.56427724 3.5234375 45.09765625 C3.52669037 44.33195816 3.52994324 43.56626007 3.53329468 42.77735901 C3.65593131 37.49134731 3.65593131 37.49134731 5.40478516 34.99389648 C7 34 7 34 9 34 C9.28875 33.4225 9.5775 32.845 9.875 32.25 C10.55709707 30.88580586 11.27280286 29.53684589 12.046875 28.22265625 C14.15485166 23.3069238 13.93437639 16.84353464 12.27734375 11.80078125 C10.2234876 7.96747079 7.52025015 5.46417511 4 3 C3.236875 2.4225 2.47375 1.845 1.6875 1.25 C1.130625 0.8375 0.57375 0.425 0 0 Z " fill="#F9AD03" transform="translate(196,343)"/>
<path d="M0 0 C1.24523437 0.01804688 2.49046875 0.03609375 3.7734375 0.0546875 C5.18496094 0.08949219 5.18496094 0.08949219 6.625 0.125 C6.625 0.455 6.625 0.785 6.625 1.125 C5.779375 1.24617187 4.93375 1.36734375 4.0625 1.4921875 C-2.18989625 2.41583695 -8.27920377 3.45164417 -14.375 5.125 C-14.045 4.135 -13.715 3.145 -13.375 2.125 C-8.87394232 0.08397985 -4.8933808 -0.09232794 0 0 Z " fill="#ADD7FF" transform="translate(190.375,222.875)"/>
<path d="M0 0 C2.64 1.98 5.28 3.96 8 6 C4.00095031 6 2.19799578 4.27413033 -1 2 C-0.67 1.34 -0.34 0.68 0 0 Z " fill="#0EB616" transform="translate(348,434)"/>
</svg>
